<?xml version="1.0" encoding="UTF-8" standalone="no"?>
<svg width="17px" height="16px" viewBox="0 0 17 16" version="1.1" xmlns="http://www.w3.org/2000/svg" xmlns:xlink="http://www.w3.org/1999/xlink" xmlns:sketch="http://www.bohemiancoding.com/sketch/ns">
    <!-- Generator: Sketch 3.1.1 (8761) - http://www.bohemiancoding.com/sketch -->
    <title>icon_57113</title>
    <desc>Created with Sketch.</desc>
    <defs></defs>
    <g id="Welcome" stroke="none" stroke-width="1" fill="none" fill-rule="evenodd" sketch:type="MSPage">
        <g id="Desktop-3" sketch:type="MSArtboardGroup" transform="translate(-21.000000, -160.000000)" fill="#979797">
            <g id="icon_57113" sketch:type="MSLayerGroup" transform="translate(22.000000, 160.000000)">
                <g id="Group" sketch:type="MSShapeGroup">
                    <path d="M6.10869445,12.5278731 C2.69287051,12.5278731 -0.086,9.74900263 -0.086,6.33369445 C-0.086,2.91838626 2.69287051,0.139 6.10869445,0.139 C9.52451838,0.139 12.3028731,2.91787051 12.3028731,6.33369445 C12.3028731,9.74951838 9.52400263,12.5278731 6.10869445,12.5278731 L6.10869445,12.5278731 Z M6.10869445,1.68625529 C3.54592393,1.68625529 1.46125529,3.77092393 1.46125529,6.33369445 C1.46125529,8.89594921 3.54592393,10.9806178 6.10869445,10.9806178 C8.67094921,10.9806178 10.7556178,8.89594921 10.7556178,6.33369445 C10.7556178,3.77092393 8.67094921,1.68625529 6.10869445,1.68625529 L6.10869445,1.68625529 Z" id="Shape"></path>
                    <path d="M14.5567084,15.7002622 C14.3586597,15.7002622 14.160611,15.6249625 14.0094957,15.4738472 L9.36566684,10.8300183 C9.06343631,10.5283035 9.06343631,10.0378236 9.36566684,9.73610884 C9.66789738,9.4338783 10.1573458,9.4338783 10.4595763,9.73610884 L15.1034052,14.3799377 C15.4056358,14.6816525 15.4056358,15.1721324 15.1034052,15.4738472 C14.95229,15.6249625 14.7542413,15.7002622 14.5567084,15.7002622 L14.5567084,15.7002622 Z" id="Shape"></path>
                </g>
            </g>
        </g>
    </g>
</svg>